# xmcd
#
# Track frame offsets:
# 150
# 17652
# 35034
# 60509
# 77151
# 91058
# 110504
# 127593
# 146305
# 159892
# 187085
#
# Disc length: 3005 seconds
#
#
# Revision: 0
# Processed by: cddbd v1.5.2PL0 Copyright (c) Steve Scherf et al.
# Submitted via: Nero 7, 11, 10, 0 
#
DISCID=7f0bbb0b
DTITLE=Earl Green - A Different Picture
DYEAR=2005
DGENRE=Blues
TTITLE0=She's Gone
TTITLE1=What A Fool
TTITLE2=Space And Time
TTITLE3=A Love Thing
TTITLE4=She'll Eat You Up
TTITLE5=Let That Someone In
TTITLE6=Things Could Be Worse
TTITLE7=I Crossed The Line
TTITLE8=Don't Mess With My Baby
TTITLE9=I Don't Want This To End 
TTITLE10=Day Dreaming
EXTD=
EXTT0=She's Gone
EXTT1=What A Fool
EXTT2=Space And Time
EXTT3=A Love Thing
EXTT4=She'll Eat You Up
EXTT5=Let That Someone In
EXTT6=Things Could Be Worse
EXTT7=I Crossed The Line
EXTT8=Don't Mess With My Baby
EXTT9=I Don't Want This To End 
EXTT10=Day Dreaming
PLAYORDER=
